<svg width="10" height="10" viewBox="0 0 10 10" fill="none" xmlns="http://www.w3.org/2000/svg">
<path d="M7.91667 7.91667H2.08333V3.33334H7.91667V7.91667ZM7.91667 1.25001H7.5V0.416672H6.66667V1.25001H3.33333V0.416672H2.5V1.25001H2.08333C1.62083 1.25001 1.25 1.62501 1.25 2.08334V7.91667C1.25 8.13769 1.3378 8.34965 1.49408 8.50593C1.65036 8.66221 1.86232 8.75 2.08333 8.75H7.91667C8.13768 8.75 8.34964 8.66221 8.50592 8.50593C8.6622 8.34965 8.75 8.13769 8.75 7.91667V2.08334C8.75 1.86232 8.6622 1.65036 8.50592 1.49408C8.34964 1.3378 8.13768 1.25001 7.91667 1.25001ZM6.8875 4.60834L6.44583 4.16667L4.4125 6.20001L3.52917 5.31667L3.0875 5.75834L4.4125 7.08334L6.8875 4.60834Z" fill="black"/>
</svg>
