<svg width="20" height="20" viewBox="0 0 18 18" fill="none" xmlns="http://www.w3.org/2000/svg">
<path d="M2 0H16C16.5304 0 17.0391 0.210714 17.4142 0.585786C17.7893 0.960859 18 1.46957 18 2V16C18 16.5304 17.7893 17.0391 17.4142 17.4142C17.0391 17.7893 16.5304 18 16 18H2C1.46957 18 0.960859 17.7893 0.585786 17.4142C0.210714 17.0391 0 16.5304 0 16V2C0 1.46957 0.210714 0.960859 0.585786 0.585786C0.960859 0.210714 1.46957 0 2 0ZM16.5 9H15V7.5H14V9H12.5V10H14V11.5H15V10H16.5V9ZM6.65 8.36V9.9H9.22C9.09 10.54 8.45 11.83 6.65 11.83C5.11 11.83 3.89 10.54 3.89 9C3.89 7.46 5.11 6.17 6.65 6.17C7.55 6.17 8.13 6.56 8.45 6.88L9.67 5.72C8.9 4.95 7.87 4.5 6.65 4.5C4.14 4.5 2.15 6.5 2.15 9C2.15 11.5 4.14 13.5 6.65 13.5C9.22 13.5 10.96 11.7 10.96 9.13C10.96 8.81 10.96 8.61 10.89 8.36H6.65Z" fill="#DC4E41"/>
</svg>
