<svg width="10" height="10" viewBox="0 0 10 10" fill="none" xmlns="http://www.w3.org/2000/svg">
<g clip-path="url(#clip0)">
<path d="M2.45286 3.75002V8.75002H0.945068V3.75002H2.45286ZM3.96064 8.75002C3.7607 8.75002 3.56894 8.66222 3.42756 8.50594C3.28618 8.34966 3.20675 8.1377 3.20675 7.91669V3.75002C3.20675 3.52085 3.28968 3.31252 3.42915 3.16252L5.90946 0.416687L6.30902 0.858354C6.4108 0.970854 6.47488 1.12502 6.47488 1.29585L6.46357 1.42919L6.10547 3.33335H8.48401C8.90242 3.33335 9.2379 3.70835 9.2379 4.16669V5.00002C9.2379 5.10835 9.21906 5.20835 9.18513 5.30419L8.04675 8.24169C7.93367 8.54169 7.66603 8.75002 7.35317 8.75002H3.96064ZM3.96064 7.91669H7.36448L8.48401 5.00002V4.16669H5.17064L5.59659 1.95002L3.96064 3.76252V7.91669Z" fill="black" fill-opacity="0.4"/>
</g>
<defs>
<clipPath id="clip0">
<rect width="9.04673" height="10" fill="white" transform="translate(0.568115)"/>
</clipPath>
</defs>
</svg>
