<svg width="20" height="20" viewBox="0 0 18 18" fill="none" xmlns="http://www.w3.org/2000/svg">
<path d="M2 0H16C16.5304 0 17.0391 0.210714 17.4142 0.585786C17.7893 0.960859 18 1.46957 18 2V16C18 16.5304 17.7893 17.0391 17.4142 17.4142C17.0391 17.7893 16.5304 18 16 18H2C1.46957 18 0.960859 17.7893 0.585786 17.4142C0.210714 17.0391 0 16.5304 0 16V2C0 1.46957 0.210714 0.960859 0.585786 0.585786C0.960859 0.210714 1.46957 0 2 0ZM14.71 6.33C15.19 5.93 15.75 5.45 16 4.92C15.59 5.13 15.1 5.26 14.56 5.33C15.06 4.97 15.47 4.5 15.68 3.86C15.16 4.14 14.63 4.38 13.97 4.5C12.42 2.63 8.71 4.15 9.37 6.95C6.76 6.79 5.17 5.61 3.85 4.16C3.1 5.38 3.75 7.23 4.64 7.74C4.18 7.71 3.83 7.57 3.5 7.41C3.54 8.95 4.39 9.69 5.58 10.09C5.22 10.16 4.82 10.18 4.44 10.12C4.81 11.19 5.58 11.86 6.9 12C6 12.76 4.34 13.29 3 13.08C4.15 13.81 5.46 14.39 7.28 14.31C11.69 14.11 14.64 10.95 14.71 6.33Z" fill="#55ACEE"/>
</svg>
