<svg width="39" height="48" viewBox="0 0 39 48" fill="none" xmlns="http://www.w3.org/2000/svg">
<path d="M8.5 4.5H29.5C30.2956 4.5 31.0587 4.81607 31.6213 5.37868C32.1839 5.94129 32.5 6.70435 32.5 7.5V28.5C32.5 29.2956 32.1839 30.0587 31.6213 30.6213C31.0587 31.1839 30.2956 31.5 29.5 31.5H8.5C7.70435 31.5 6.94129 31.1839 6.37868 30.6213C5.81607 30.0587 5.5 29.2956 5.5 28.5V7.5C5.5 6.70435 5.81607 5.94129 6.37868 5.37868C6.94129 4.81607 7.70435 4.5 8.5 4.5ZM28 7.5H24.25C22.8576 7.5 21.5223 8.05312 20.5377 9.03769C19.5531 10.0223 19 11.3576 19 12.75V16.5H16V21H19V31.5H23.5V21H28V16.5H23.5V13.5C23.5 13.1022 23.658 12.7206 23.9393 12.4393C24.2206 12.158 24.6022 12 25 12H28V7.5Z" fill="#3B5998"/>
<path d="M4.33301 42.0117H1.34912V45H0.808594V38.6016H4.77246V39.063H1.34912V41.5503H4.33301V42.0117ZM8.6001 45C8.54736 44.8506 8.51367 44.6294 8.49902 44.3364C8.31445 44.5767 8.07861 44.7627 7.7915 44.8945C7.50732 45.0234 7.20557 45.0879 6.88623 45.0879C6.4292 45.0879 6.05859 44.9604 5.77441 44.7056C5.49316 44.4507 5.35254 44.1284 5.35254 43.7388C5.35254 43.2759 5.54443 42.9097 5.92822 42.6401C6.31494 42.3706 6.85254 42.2358 7.54102 42.2358H8.49463V41.6953C8.49463 41.3555 8.38916 41.0889 8.17822 40.8955C7.97021 40.6992 7.66553 40.6011 7.26416 40.6011C6.89795 40.6011 6.59473 40.6948 6.35449 40.8823C6.11426 41.0698 5.99414 41.2954 5.99414 41.5591L5.4668 41.5547C5.4668 41.1768 5.64258 40.8501 5.99414 40.5747C6.3457 40.2964 6.77783 40.1572 7.29053 40.1572C7.8208 40.1572 8.23828 40.2905 8.54297 40.5571C8.85059 40.8208 9.00879 41.1899 9.01758 41.6646V43.9146C9.01758 44.3745 9.06592 44.7188 9.1626 44.9473V45H8.6001ZM6.94775 44.6221C7.29932 44.6221 7.61279 44.5371 7.88818 44.3672C8.1665 44.1973 8.36865 43.9702 8.49463 43.686V42.6401H7.5542C7.02979 42.646 6.61963 42.7427 6.32373 42.9302C6.02783 43.1147 5.87988 43.3696 5.87988 43.6948C5.87988 43.9614 5.97803 44.1826 6.17432 44.3584C6.37354 44.5342 6.63135 44.6221 6.94775 44.6221ZM12.1816 44.644C12.5479 44.644 12.854 44.5415 13.1001 44.3364C13.3491 44.1284 13.4839 43.8604 13.5044 43.5322H14.0098C13.9951 43.8223 13.9043 44.0874 13.7373 44.3276C13.5703 44.5649 13.3477 44.751 13.0693 44.8857C12.7939 45.0205 12.498 45.0879 12.1816 45.0879C11.5576 45.0879 11.0625 44.8711 10.6963 44.4375C10.333 44.0039 10.1514 43.4209 10.1514 42.6885V42.5303C10.1514 42.0615 10.2334 41.647 10.3975 41.2866C10.5615 40.9263 10.7959 40.6479 11.1006 40.4517C11.4082 40.2554 11.7671 40.1572 12.1772 40.1572C12.6987 40.1572 13.1279 40.3125 13.4648 40.623C13.8047 40.9336 13.9863 41.3423 14.0098 41.8491H13.5044C13.481 41.4771 13.3462 41.1768 13.1001 40.9482C12.8569 40.7197 12.5493 40.6055 12.1772 40.6055C11.7026 40.6055 11.3335 40.7769 11.0698 41.1196C10.8091 41.4624 10.6787 41.9429 10.6787 42.561V42.7148C10.6787 43.3213 10.8091 43.7944 11.0698 44.1343C11.3335 44.4741 11.7041 44.644 12.1816 44.644ZM16.9058 45.0879C16.5015 45.0879 16.1353 44.9883 15.8071 44.7891C15.4819 44.5898 15.2285 44.313 15.0469 43.9585C14.8652 43.6011 14.7744 43.2012 14.7744 42.7588V42.5698C14.7744 42.1128 14.8623 41.7012 15.0381 41.335C15.2168 40.9688 15.4644 40.6816 15.7808 40.4736C16.0972 40.2627 16.4399 40.1572 16.8091 40.1572C17.3862 40.1572 17.8433 40.355 18.1802 40.7505C18.52 41.1431 18.6899 41.6807 18.6899 42.3633V42.6577H15.2974V42.7588C15.2974 43.2979 15.4512 43.7476 15.7588 44.1079C16.0693 44.4653 16.459 44.644 16.9277 44.644C17.209 44.644 17.4565 44.5928 17.6704 44.4902C17.8872 44.3877 18.0835 44.2236 18.2593 43.998L18.5889 44.2485C18.2021 44.8081 17.6411 45.0879 16.9058 45.0879ZM16.8091 40.6055C16.4136 40.6055 16.0796 40.7505 15.8071 41.0405C15.5376 41.3306 15.3735 41.7202 15.3149 42.2095H18.167V42.1523C18.1523 41.6953 18.022 41.3232 17.7759 41.0361C17.5298 40.749 17.2075 40.6055 16.8091 40.6055ZM23.5415 42.6709C23.5415 43.4121 23.3774 44.001 23.0493 44.4375C22.7212 44.8711 22.2803 45.0879 21.7266 45.0879C21.0645 45.0879 20.5635 44.8418 20.2236 44.3496L20.2017 45H19.7095V38.25H20.2324V40.9351C20.5664 40.4165 21.0615 40.1572 21.7178 40.1572C22.2803 40.1572 22.7241 40.3726 23.0493 40.8032C23.3774 41.231 23.5415 41.8271 23.5415 42.5918V42.6709ZM23.0142 42.5786C23.0142 41.9517 22.8926 41.4683 22.6494 41.1284C22.4062 40.7856 22.0635 40.6143 21.6211 40.6143C21.2842 40.6143 20.9985 40.6978 20.7642 40.8647C20.5298 41.0288 20.3525 41.2705 20.2324 41.5898V43.7344C20.4961 44.332 20.9619 44.6309 21.6299 44.6309C22.0635 44.6309 22.4019 44.4595 22.645 44.1167C22.8911 43.7739 23.0142 43.2612 23.0142 42.5786ZM24.416 42.5522C24.416 42.0952 24.5039 41.6836 24.6797 41.3174C24.8584 40.9512 25.1089 40.667 25.4312 40.4648C25.7563 40.2598 26.124 40.1572 26.5342 40.1572C27.167 40.1572 27.6797 40.3799 28.0723 40.8252C28.4648 41.2676 28.6611 41.855 28.6611 42.5874V42.6973C28.6611 43.1572 28.5718 43.5718 28.3931 43.9409C28.2173 44.3071 27.9683 44.5898 27.646 44.7891C27.3237 44.9883 26.9561 45.0879 26.543 45.0879C25.9131 45.0879 25.4004 44.8667 25.0049 44.4243C24.6123 43.979 24.416 43.3901 24.416 42.6577V42.5522ZM24.9434 42.6973C24.9434 43.2656 25.0898 43.7329 25.3828 44.0991C25.6787 44.4624 26.0654 44.644 26.543 44.644C27.0176 44.644 27.4014 44.4624 27.6943 44.0991C27.9902 43.7329 28.1382 43.251 28.1382 42.6533V42.5522C28.1382 42.189 28.0708 41.8564 27.936 41.5547C27.8013 41.2529 27.6123 41.02 27.3691 40.856C27.126 40.689 26.8477 40.6055 26.5342 40.6055C26.0654 40.6055 25.6831 40.79 25.3872 41.1592C25.0913 41.5254 24.9434 42.0059 24.9434 42.6006V42.6973ZM29.4609 42.5522C29.4609 42.0952 29.5488 41.6836 29.7246 41.3174C29.9033 40.9512 30.1538 40.667 30.4761 40.4648C30.8013 40.2598 31.1689 40.1572 31.5791 40.1572C32.2119 40.1572 32.7246 40.3799 33.1172 40.8252C33.5098 41.2676 33.7061 41.855 33.7061 42.5874V42.6973C33.7061 43.1572 33.6167 43.5718 33.438 43.9409C33.2622 44.3071 33.0132 44.5898 32.6909 44.7891C32.3687 44.9883 32.001 45.0879 31.5879 45.0879C30.958 45.0879 30.4453 44.8667 30.0498 44.4243C29.6572 43.979 29.4609 43.3901 29.4609 42.6577V42.5522ZM29.9883 42.6973C29.9883 43.2656 30.1348 43.7329 30.4277 44.0991C30.7236 44.4624 31.1104 44.644 31.5879 44.644C32.0625 44.644 32.4463 44.4624 32.7393 44.0991C33.0352 43.7329 33.1831 43.251 33.1831 42.6533V42.5522C33.1831 42.189 33.1157 41.8564 32.981 41.5547C32.8462 41.2529 32.6572 41.02 32.4141 40.856C32.1709 40.689 31.8926 40.6055 31.5791 40.6055C31.1104 40.6055 30.728 40.79 30.4321 41.1592C30.1362 41.5254 29.9883 42.0059 29.9883 42.6006V42.6973ZM35.9253 42.605L35.3232 43.1851V45H34.7959V38.25H35.3232V42.5698L35.8198 42.0337L37.6392 40.2451H38.3027L36.2856 42.249L38.4785 45H37.8501L35.9253 42.605Z" fill="black"/>
</svg>
