<svg width="36" height="48" viewBox="0 0 36 48" fill="none" xmlns="http://www.w3.org/2000/svg">
<path d="M7.5 4.5H28.5C29.2956 4.5 30.0587 4.81607 30.6213 5.37868C31.1839 5.94129 31.5 6.70435 31.5 7.5V28.5C31.5 29.2956 31.1839 30.0587 30.6213 30.6213C30.0587 31.1839 29.2956 31.5 28.5 31.5H7.5C6.70435 31.5 5.94129 31.1839 5.37868 30.6213C4.81607 30.0587 4.5 29.2956 4.5 28.5V7.5C4.5 6.70435 4.81607 5.94129 5.37868 5.37868C5.94129 4.81607 6.70435 4.5 7.5 4.5ZM29.25 18H27V15.75H25.5V18H23.25V19.5H25.5V21.75H27V19.5H29.25V18ZM14.475 17.04V19.35H18.33C18.135 20.31 17.175 22.245 14.475 22.245C12.165 22.245 10.335 20.31 10.335 18C10.335 15.69 12.165 13.755 14.475 13.755C15.825 13.755 16.695 14.34 17.175 14.82L19.005 13.08C17.85 11.925 16.305 11.25 14.475 11.25C10.71 11.25 7.725 14.25 7.725 18C7.725 21.75 10.71 24.75 14.475 24.75C18.33 24.75 20.94 22.05 20.94 18.195C20.94 17.715 20.94 17.415 20.835 17.04H14.475Z" fill="#DC4E41"/>
<path d="M9.42725 44.2397C9.23975 44.5063 8.94531 44.7144 8.54395 44.8638C8.14551 45.0132 7.69873 45.0879 7.20361 45.0879C6.70264 45.0879 6.25732 44.9678 5.86768 44.7275C5.47803 44.4873 5.17627 44.1475 4.9624 43.708C4.74854 43.2686 4.64014 42.7646 4.63721 42.1963V41.3877C4.63721 40.5 4.86133 39.7998 5.30957 39.2871C5.75781 38.7715 6.35986 38.5137 7.11572 38.5137C7.7749 38.5137 8.30518 38.6821 8.70654 39.019C9.10791 39.353 9.34668 39.8145 9.42285 40.4033H8.88232C8.80322 39.9346 8.61133 39.5801 8.30664 39.3398C8.00488 39.0967 7.60938 38.9751 7.12012 38.9751C6.52246 38.9751 6.04932 39.1875 5.70068 39.6123C5.35205 40.0371 5.17773 40.6362 5.17773 41.4097V42.1655C5.17773 42.6519 5.25977 43.0825 5.42383 43.4575C5.59082 43.8296 5.82812 44.1182 6.13574 44.3232C6.44629 44.5283 6.80225 44.6309 7.20361 44.6309C7.66943 44.6309 8.06934 44.5576 8.40332 44.4111C8.62012 44.3145 8.78125 44.2017 8.88672 44.0728V42.4204H7.16846V41.9634H9.42725V44.2397ZM10.5479 42.5522C10.5479 42.0952 10.6357 41.6836 10.8115 41.3174C10.9902 40.9512 11.2407 40.667 11.563 40.4648C11.8882 40.2598 12.2559 40.1572 12.666 40.1572C13.2988 40.1572 13.8115 40.3799 14.2041 40.8252C14.5967 41.2676 14.793 41.855 14.793 42.5874V42.6973C14.793 43.1572 14.7036 43.5718 14.5249 43.9409C14.3491 44.3071 14.1001 44.5898 13.7778 44.7891C13.4556 44.9883 13.0879 45.0879 12.6748 45.0879C12.0449 45.0879 11.5322 44.8667 11.1367 44.4243C10.7441 43.979 10.5479 43.3901 10.5479 42.6577V42.5522ZM11.0752 42.6973C11.0752 43.2656 11.2217 43.7329 11.5146 44.0991C11.8105 44.4624 12.1973 44.644 12.6748 44.644C13.1494 44.644 13.5332 44.4624 13.8262 44.0991C14.1221 43.7329 14.27 43.251 14.27 42.6533V42.5522C14.27 42.189 14.2026 41.8564 14.0679 41.5547C13.9331 41.2529 13.7441 41.02 13.501 40.856C13.2578 40.689 12.9795 40.6055 12.666 40.6055C12.1973 40.6055 11.8149 40.79 11.519 41.1592C11.2231 41.5254 11.0752 42.0059 11.0752 42.6006V42.6973ZM15.5928 42.5522C15.5928 42.0952 15.6807 41.6836 15.8564 41.3174C16.0352 40.9512 16.2856 40.667 16.6079 40.4648C16.9331 40.2598 17.3008 40.1572 17.7109 40.1572C18.3438 40.1572 18.8564 40.3799 19.249 40.8252C19.6416 41.2676 19.8379 41.855 19.8379 42.5874V42.6973C19.8379 43.1572 19.7485 43.5718 19.5698 43.9409C19.394 44.3071 19.145 44.5898 18.8228 44.7891C18.5005 44.9883 18.1328 45.0879 17.7197 45.0879C17.0898 45.0879 16.5771 44.8667 16.1816 44.4243C15.7891 43.979 15.5928 43.3901 15.5928 42.6577V42.5522ZM16.1201 42.6973C16.1201 43.2656 16.2666 43.7329 16.5596 44.0991C16.8555 44.4624 17.2422 44.644 17.7197 44.644C18.1943 44.644 18.5781 44.4624 18.8711 44.0991C19.167 43.7329 19.3149 43.251 19.3149 42.6533V42.5522C19.3149 42.189 19.2476 41.8564 19.1128 41.5547C18.978 41.2529 18.7891 41.02 18.5459 40.856C18.3027 40.689 18.0244 40.6055 17.7109 40.6055C17.2422 40.6055 16.8599 40.79 16.564 41.1592C16.2681 41.5254 16.1201 42.0059 16.1201 42.6006V42.6973ZM20.7168 42.5786C20.7168 41.8345 20.8809 41.2456 21.209 40.812C21.54 40.3755 21.9883 40.1572 22.5537 40.1572C23.2012 40.1572 23.6934 40.415 24.0303 40.9307L24.0566 40.2451H24.5488V44.9033C24.5488 45.5156 24.3774 46.0005 24.0347 46.3579C23.6919 46.7153 23.2275 46.894 22.6416 46.894C22.3105 46.894 21.9941 46.8193 21.6924 46.6699C21.3936 46.5234 21.1577 46.3271 20.9849 46.0811L21.2793 45.7646C21.6514 46.2217 22.0938 46.4502 22.6064 46.4502C23.0459 46.4502 23.3887 46.3198 23.6348 46.0591C23.8809 45.8013 24.0083 45.4424 24.0171 44.9824V44.3848C23.6802 44.8535 23.1895 45.0879 22.5449 45.0879C21.9941 45.0879 21.5518 44.8682 21.2178 44.4287C20.8838 43.9893 20.7168 43.396 20.7168 42.6489V42.5786ZM21.2485 42.6709C21.2485 43.2773 21.3701 43.7563 21.6133 44.1079C21.8564 44.4565 22.1992 44.6309 22.6416 44.6309C23.2891 44.6309 23.7476 44.3408 24.0171 43.7607V41.5503C23.894 41.2456 23.7168 41.0142 23.4854 40.856C23.2539 40.6948 22.9756 40.6143 22.6504 40.6143C22.208 40.6143 21.8638 40.7886 21.6177 41.1372C21.3716 41.4829 21.2485 41.9941 21.2485 42.6709ZM26.5088 45H25.9814V38.25H26.5088V45ZM29.7827 45.0879C29.3784 45.0879 29.0122 44.9883 28.6841 44.7891C28.3589 44.5898 28.1055 44.313 27.9238 43.9585C27.7422 43.6011 27.6514 43.2012 27.6514 42.7588V42.5698C27.6514 42.1128 27.7393 41.7012 27.915 41.335C28.0938 40.9688 28.3413 40.6816 28.6577 40.4736C28.9741 40.2627 29.3169 40.1572 29.686 40.1572C30.2632 40.1572 30.7202 40.355 31.0571 40.7505C31.397 41.1431 31.5669 41.6807 31.5669 42.3633V42.6577H28.1743V42.7588C28.1743 43.2979 28.3281 43.7476 28.6357 44.1079C28.9463 44.4653 29.3359 44.644 29.8047 44.644C30.0859 44.644 30.3335 44.5928 30.5474 44.4902C30.7642 44.3877 30.9604 44.2236 31.1362 43.998L31.4658 44.2485C31.0791 44.8081 30.5181 45.0879 29.7827 45.0879ZM29.686 40.6055C29.2905 40.6055 28.9565 40.7505 28.6841 41.0405C28.4146 41.3306 28.2505 41.7202 28.1919 42.2095H31.0439V42.1523C31.0293 41.6953 30.8989 41.3232 30.6528 41.0361C30.4067 40.749 30.0845 40.6055 29.686 40.6055Z" fill="black"/>
</svg>
