<svg width="37" height="48" viewBox="0 0 37 48" fill="none" xmlns="http://www.w3.org/2000/svg">
<path d="M29.5 4.5C30.2956 4.5 31.0587 4.81607 31.6213 5.37868C32.1839 5.94129 32.5 6.70435 32.5 7.5V28.5C32.5 29.2956 32.1839 30.0587 31.6213 30.6213C31.0587 31.1839 30.2956 31.5 29.5 31.5H8.5C7.70435 31.5 6.94129 31.1839 6.37868 30.6213C5.81607 30.0587 5.5 29.2956 5.5 28.5V7.5C5.5 6.70435 5.81607 5.94129 6.37868 5.37868C6.94129 4.81607 7.70435 4.5 8.5 4.5H29.5ZM28.75 27.75V19.8C28.75 18.5031 28.2348 17.2593 27.3178 16.3422C26.4007 15.4252 25.1569 14.91 23.86 14.91C22.585 14.91 21.1 15.69 20.38 16.86V15.195H16.195V27.75H20.38V20.355C20.38 19.2 21.31 18.255 22.465 18.255C23.022 18.255 23.5561 18.4762 23.9499 18.8701C24.3438 19.2639 24.565 19.798 24.565 20.355V27.75H28.75ZM11.32 12.84C11.9883 12.84 12.6293 12.5745 13.1019 12.1019C13.5745 11.6293 13.84 10.9883 13.84 10.32C13.84 8.925 12.715 7.785 11.32 7.785C10.6477 7.785 10.0029 8.05208 9.52748 8.52748C9.05208 9.00289 8.785 9.64768 8.785 10.32C8.785 11.715 9.925 12.84 11.32 12.84ZM13.405 27.75V15.195H9.25V27.75H13.405Z" fill="#0077B5"/>
<path d="M1.35352 44.543H4.51318V45H0.808594V38.6016H1.35352V44.543ZM6.02051 45H5.49316V40.2451H6.02051V45ZM5.40088 38.8696C5.40088 38.77 5.43311 38.6865 5.49756 38.6191C5.56201 38.5488 5.6499 38.5137 5.76123 38.5137C5.87256 38.5137 5.96045 38.5488 6.0249 38.6191C6.09229 38.6865 6.12598 38.77 6.12598 38.8696C6.12598 38.9692 6.09229 39.0527 6.0249 39.1201C5.96045 39.1875 5.87256 39.2212 5.76123 39.2212C5.6499 39.2212 5.56201 39.1875 5.49756 39.1201C5.43311 39.0527 5.40088 38.9692 5.40088 38.8696ZM7.9541 40.2451L7.97168 41.0581C8.15039 40.7651 8.37305 40.5425 8.63965 40.3901C8.90625 40.2349 9.20068 40.1572 9.52295 40.1572C10.0327 40.1572 10.4121 40.3008 10.6611 40.5879C10.9102 40.875 11.0361 41.3057 11.0391 41.8799V45H10.5161V41.8755C10.5132 41.4507 10.4224 41.1343 10.2437 40.9263C10.0679 40.7183 9.78516 40.6143 9.39551 40.6143C9.07031 40.6143 8.78174 40.7168 8.52979 40.9219C8.28076 41.124 8.09619 41.3979 7.97607 41.7437V45H7.45312V40.2451H7.9541ZM13.5308 42.605L12.9287 43.1851V45H12.4014V38.25H12.9287V42.5698L13.4253 42.0337L15.2446 40.2451H15.9082L13.8911 42.249L16.084 45H15.4556L13.5308 42.605ZM18.5669 45.0879C18.1626 45.0879 17.7964 44.9883 17.4683 44.7891C17.1431 44.5898 16.8896 44.313 16.708 43.9585C16.5264 43.6011 16.4355 43.2012 16.4355 42.7588V42.5698C16.4355 42.1128 16.5234 41.7012 16.6992 41.335C16.8779 40.9688 17.1255 40.6816 17.4419 40.4736C17.7583 40.2627 18.1011 40.1572 18.4702 40.1572C19.0474 40.1572 19.5044 40.355 19.8413 40.7505C20.1812 41.1431 20.3511 41.6807 20.3511 42.3633V42.6577H16.9585V42.7588C16.9585 43.2979 17.1123 43.7476 17.4199 44.1079C17.7305 44.4653 18.1201 44.644 18.5889 44.644C18.8701 44.644 19.1177 44.5928 19.3315 44.4902C19.5483 44.3877 19.7446 44.2236 19.9204 43.998L20.25 44.2485C19.8633 44.8081 19.3022 45.0879 18.5669 45.0879ZM18.4702 40.6055C18.0747 40.6055 17.7407 40.7505 17.4683 41.0405C17.1987 41.3306 17.0347 41.7202 16.9761 42.2095H19.8281V42.1523C19.8135 41.6953 19.6831 41.3232 19.437 41.0361C19.1909 40.749 18.8687 40.6055 18.4702 40.6055ZM21.1641 42.5786C21.1641 41.8403 21.3281 41.2529 21.6562 40.8164C21.9873 40.377 22.4355 40.1572 23.001 40.1572C23.6426 40.1572 24.1318 40.4106 24.4688 40.9175V38.25H24.9917V45H24.4995L24.4775 44.3672C24.1406 44.8477 23.6455 45.0879 22.9922 45.0879C22.4443 45.0879 22.002 44.8682 21.665 44.4287C21.3311 43.9863 21.1641 43.3901 21.1641 42.6401V42.5786ZM21.6958 42.6709C21.6958 43.2773 21.8174 43.7563 22.0605 44.1079C22.3037 44.4565 22.6465 44.6309 23.0889 44.6309C23.7363 44.6309 24.1963 44.3452 24.4688 43.7739V41.5415C24.1963 40.9233 23.7393 40.6143 23.0977 40.6143C22.6553 40.6143 22.311 40.7886 22.0649 41.1372C21.8188 41.4829 21.6958 41.9941 21.6958 42.6709ZM27.1582 45H26.6177V38.6016H27.1582V45ZM29.2764 40.2451L29.2939 41.0581C29.4727 40.7651 29.6953 40.5425 29.9619 40.3901C30.2285 40.2349 30.5229 40.1572 30.8452 40.1572C31.355 40.1572 31.7344 40.3008 31.9834 40.5879C32.2324 40.875 32.3584 41.3057 32.3613 41.8799V45H31.8384V41.8755C31.8354 41.4507 31.7446 41.1343 31.5659 40.9263C31.3901 40.7183 31.1074 40.6143 30.7178 40.6143C30.3926 40.6143 30.104 40.7168 29.8521 40.9219C29.603 41.124 29.4185 41.3979 29.2983 41.7437V45H28.7754V40.2451H29.2764Z" fill="black"/>
</svg>
