<svg width="36" height="48" viewBox="0 0 36 48" fill="none" xmlns="http://www.w3.org/2000/svg">
<path d="M7.5 4.5H28.5C29.2956 4.5 30.0587 4.81607 30.6213 5.37868C31.1839 5.94129 31.5 6.70435 31.5 7.5V28.5C31.5 29.2956 31.1839 30.0587 30.6213 30.6213C30.0587 31.1839 29.2956 31.5 28.5 31.5H7.5C6.70435 31.5 5.94129 31.1839 5.37868 30.6213C4.81607 30.0587 4.5 29.2956 4.5 28.5V7.5C4.5 6.70435 4.81607 5.94129 5.37868 5.37868C5.94129 4.81607 6.70435 4.5 7.5 4.5ZM26.565 13.995C27.285 13.395 28.125 12.675 28.5 11.88C27.885 12.195 27.15 12.39 26.34 12.495C27.09 11.955 27.705 11.25 28.02 10.29C27.24 10.71 26.445 11.07 25.455 11.25C23.13 8.445 17.565 10.725 18.555 14.925C14.64 14.685 12.255 12.915 10.275 10.74C9.15 12.57 10.125 15.345 11.46 16.11C10.77 16.065 10.245 15.855 9.75 15.615C9.81 17.925 11.085 19.035 12.87 19.635C12.33 19.74 11.73 19.77 11.16 19.68C11.715 21.285 12.87 22.29 14.85 22.5C13.5 23.64 11.01 24.435 9 24.12C10.725 25.215 12.69 26.085 15.42 25.965C22.035 25.665 26.46 20.925 26.565 13.995Z" fill="#55ACEE"/>
<path d="M8.15039 39.063H5.95752V45H5.41699V39.063H3.22852V38.6016H8.15039V39.063ZM9.94775 43.9058L10.0269 44.3145L10.1323 43.8838L11.2749 40.2451H11.7231L12.8525 43.853L12.9756 44.354L13.0767 43.8926L14.0522 40.2451H14.5972L13.2129 45H12.7646L11.543 41.2295L11.4858 40.9702L11.4287 41.2339L10.229 45H9.78076L8.40088 40.2451H8.94141L9.94775 43.9058ZM16.1836 45H15.6562V40.2451H16.1836V45ZM15.564 38.8696C15.564 38.77 15.5962 38.6865 15.6606 38.6191C15.7251 38.5488 15.813 38.5137 15.9243 38.5137C16.0356 38.5137 16.1235 38.5488 16.188 38.6191C16.2554 38.6865 16.2891 38.77 16.2891 38.8696C16.2891 38.9692 16.2554 39.0527 16.188 39.1201C16.1235 39.1875 16.0356 39.2212 15.9243 39.2212C15.813 39.2212 15.7251 39.1875 15.6606 39.1201C15.5962 39.0527 15.564 38.9692 15.564 38.8696ZM18.4336 39.0278V40.2451H19.418V40.6758H18.4336V43.8442C18.4336 44.1079 18.4805 44.3042 18.5742 44.4331C18.6709 44.562 18.8306 44.6265 19.0532 44.6265C19.1411 44.6265 19.2832 44.6118 19.4795 44.5825L19.5015 45.0132C19.3638 45.063 19.1763 45.0879 18.939 45.0879C18.5786 45.0879 18.3164 44.9839 18.1523 44.7759C17.9883 44.5649 17.9062 44.2559 17.9062 43.8486V40.6758H17.0317V40.2451H17.9062V39.0278H18.4336ZM21.3252 39.0278V40.2451H22.3096V40.6758H21.3252V43.8442C21.3252 44.1079 21.3721 44.3042 21.4658 44.4331C21.5625 44.562 21.7222 44.6265 21.9448 44.6265C22.0327 44.6265 22.1748 44.6118 22.3711 44.5825L22.3931 45.0132C22.2554 45.063 22.0679 45.0879 21.8306 45.0879C21.4702 45.0879 21.208 44.9839 21.0439 44.7759C20.8799 44.5649 20.7979 44.2559 20.7979 43.8486V40.6758H19.9233V40.2451H20.7979V39.0278H21.3252ZM25.2407 45.0879C24.8364 45.0879 24.4702 44.9883 24.1421 44.7891C23.8169 44.5898 23.5635 44.313 23.3818 43.9585C23.2002 43.6011 23.1094 43.2012 23.1094 42.7588V42.5698C23.1094 42.1128 23.1973 41.7012 23.373 41.335C23.5518 40.9688 23.7993 40.6816 24.1157 40.4736C24.4321 40.2627 24.7749 40.1572 25.144 40.1572C25.7212 40.1572 26.1782 40.355 26.5151 40.7505C26.855 41.1431 27.0249 41.6807 27.0249 42.3633V42.6577H23.6323V42.7588C23.6323 43.2979 23.7861 43.7476 24.0938 44.1079C24.4043 44.4653 24.7939 44.644 25.2627 44.644C25.5439 44.644 25.7915 44.5928 26.0054 44.4902C26.2222 44.3877 26.4185 44.2236 26.5942 43.998L26.9238 44.2485C26.5371 44.8081 25.9761 45.0879 25.2407 45.0879ZM25.144 40.6055C24.7485 40.6055 24.4146 40.7505 24.1421 41.0405C23.8726 41.3306 23.7085 41.7202 23.6499 42.2095H26.502V42.1523C26.4873 41.6953 26.3569 41.3232 26.1108 41.0361C25.8647 40.749 25.5425 40.6055 25.144 40.6055ZM30.2461 40.6934C30.1348 40.6729 30.0161 40.6626 29.8901 40.6626C29.562 40.6626 29.2837 40.7549 29.0552 40.9395C28.8296 41.1211 28.6685 41.3862 28.5718 41.7349V45H28.0488V40.2451H28.563L28.5718 41.001C28.8501 40.4385 29.2969 40.1572 29.9121 40.1572C30.0586 40.1572 30.1743 40.1763 30.2593 40.2144L30.2461 40.6934Z" fill="black"/>
</svg>
