<svg width="10" height="10" viewBox="0 0 10 10" fill="none" xmlns="http://www.w3.org/2000/svg">
<path d="M7.91675 6.25V1.25H9.58341V6.25H7.91675ZM6.25008 1.25C6.47109 1.25 6.68306 1.3378 6.83934 1.49408C6.99562 1.65036 7.08341 1.86232 7.08341 2.08333V6.25C7.08341 6.47917 6.99175 6.6875 6.83758 6.8375L4.09591 9.58333L3.65425 9.14167C3.54175 9.02917 3.47091 8.875 3.47091 8.7L3.48341 8.57083L3.87925 6.66667H1.25008C0.787581 6.66667 0.416748 6.29167 0.416748 5.83333V5C0.416748 4.89167 0.437581 4.79167 0.475081 4.69583L1.73341 1.75833C1.85841 1.45833 2.15425 1.25 2.50008 1.25H6.25008ZM6.25008 2.08333H2.48758L1.25008 5V5.83333H4.90841L4.43758 8.05L6.25008 6.2375V2.08333Z" fill="black" fill-opacity="0.4"/>
</svg>
